<svg width="45" height="25" viewBox="0 0 45 25" fill="none" xmlns="http://www.w3.org/2000/svg">
<g id="Frame 7">
<g id="Logo">
<path id="Trenn" fill-rule="evenodd" clip-rule="evenodd" d="M41.3082 19.4703V22.1173C41.3082 22.1173 40.1009 23.5939 39.7641 23.4408C39.4273 23.2877 32.4848 23.4408 32.4848 23.4408C32.4848 23.4408 31.2775 22.6013 30.7201 21.6761C30.6773 21.6702 30.7201 19.2497 30.7201 19.2497H29.3966V22.3379H28.7349L27.1908 20.132L20.132 20.7938L19.2497 22.5585L18.8085 23.2202L10.6469 23.6614L9.76456 22.3379L8.66164 22.1173C8.66164 22.1173 8.11613 26.2041 6.45579 22.5585C6.44983 22.4788 6.01462 22.779 6.01462 22.779C6.01462 22.779 5.00964 25.6894 4.02936 22.5585H3.58819C3.58819 22.5585 3.0793 25.432 1.82351 22.779C1.81755 22.8097 1.82351 21.8967 1.82351 21.8967C1.82351 21.8967 0.726541 22.4541 0.5 21.235C11.9276 19.6481 29.6172 17.2644 29.6172 17.2644H35.1318L35.573 16.1615H29.3966L0.5 20.5732V13.7351C0.5 13.7351 1.18624 12.0185 2.92643 11.7498C4.66663 11.4811 30.9407 0.5 30.9407 0.5L41.9699 1.60292C41.9699 1.60292 44.1632 2.76849 44.3964 4.47052C44.6295 6.17255 44.3964 16.1615 44.3964 16.1615H40.2053C40.2053 16.1615 40.0087 17.3639 40.867 17.2644C41.7253 17.1649 44.3964 17.2644 44.3964 17.2644C44.3964 17.2644 44.1264 19.2755 43.2934 19.2497C42.6261 19.2584 41.9612 19.3323 41.3082 19.4703ZM34.2495 3.14702L41.3082 4.02935C41.3082 4.02935 42.1753 5.22669 41.3082 5.57345C40.2205 5.40536 34.6906 4.91169 34.6906 4.91169C34.6906 4.91169 32.5583 4.58082 34.2495 3.14702ZM32.4848 5.57345L36.6759 5.79403C36.6759 5.79403 37.3961 6.4399 37.3377 6.89695C37.2792 7.354 37.543 11.587 36.8965 11.5292C36.25 11.4714 32.926 11.3086 32.926 11.3086C32.926 11.3086 32.1021 11.8822 31.823 9.32338C31.544 6.7646 32.4848 5.57345 32.4848 5.57345ZM38.4406 6.2352L42.1905 6.45578C42.1905 6.45578 42.8743 6.36755 43.0729 7.55871C43.2714 8.74986 43.2934 11.3086 43.2934 11.3086C43.2934 11.3086 42.8004 12.1751 42.4111 11.9704C42.0218 11.7657 38.6612 11.7498 38.6612 11.7498C38.6612 11.7498 38.0215 11.8076 37.7788 10.6469C37.5362 9.48618 37.7788 6.67637 37.7788 6.67637L38.4406 6.2352ZM33.3671 13.7351C33.3671 13.7351 34.1976 13.4986 34.2495 14.1762C34.3013 14.8539 34.1612 15.4115 33.3671 15.2792C32.573 15.1468 32.8525 13.6982 33.3671 13.7351ZM41.0876 14.6174C41.1269 14.4572 41.2094 14.3107 41.326 14.1941C41.4427 14.0774 41.5891 13.9949 41.7494 13.9557C42.2788 13.8613 43.4622 14.6752 41.9699 15.4998C40.8822 15.2951 41.0876 14.6174 41.0876 14.6174ZM33.8083 19.2497H36.2347C36.2347 19.2497 36.698 20.2644 36.8965 20.132C37.095 19.9997 39.5435 20.132 39.5435 20.132L39.9847 19.2497H41.0876C41.0876 19.2497 40.7415 20.8516 39.3229 21.0144C38.2956 21.1067 37.2621 21.1067 36.2347 21.0144C36.2347 21.0144 34.0289 20.1689 33.8083 19.2497ZM28.9554 6.01462C28.9554 6.01462 28.0952 6.40329 28.0731 6.67637C28.051 6.94945 27.727 12.6899 28.2937 12.6322C28.6398 12.8307 29.1242 13.2414 29.6172 12.4116C30.1102 11.5817 29.8378 6.2352 29.8378 6.2352C29.5742 6.07075 29.2654 5.99357 28.9554 6.01462ZM25.6467 6.89695C25.6467 6.89695 26.8078 6.55019 26.529 8.22046C26.5069 9.96308 26.529 12.8527 26.529 12.8527C26.529 12.8527 25.7417 14.1983 24.9849 13.0733C24.7423 12.2435 24.9849 7.55871 24.9849 7.55871C24.9849 7.55871 25.4629 6.86012 25.6467 6.89695ZM19.4703 9.1028L22.3379 8.22046C22.3379 8.22046 23.3153 7.80135 23.4408 8.66163C23.5663 9.52191 23.4408 13.2939 23.4408 13.2939C23.4408 13.2939 23.3526 13.8674 22.9996 13.9557C22.6467 14.0439 19.6909 14.838 19.6909 14.838C19.6909 14.838 18.8306 14.9704 18.8085 13.2939C18.7865 11.6175 18.8085 9.98514 18.8085 9.98514C18.8085 9.98514 19.2497 9.02934 19.4703 9.1028ZM15.7204 9.98514H16.8233C16.8233 9.98514 17.2759 9.83205 17.2644 11.0881C17.2523 12.4076 17.2644 14.838 17.2644 14.838C17.2644 14.838 16.6978 16.1836 15.2792 15.2792C15.1841 13.9715 15.2792 10.8675 15.2792 10.8675C15.2792 10.8675 15.2004 10.1217 15.7204 9.98514ZM8.02569 13.2893L8.21407 16.8689C8.21407 16.8689 7.69878 18.0802 6.70682 17.2457C6.68851 16.7255 6.70682 13.666 6.70682 13.666C6.70682 13.666 7.17799 12.5984 8.02569 13.2893ZM9.32339 12.4116L10.6469 12.191C10.6469 12.191 11.3671 12.1385 11.3087 12.6322C11.2502 13.1258 11.3087 15.9409 11.3087 15.9409C11.3087 15.9409 10.822 16.4595 10.4263 16.8233C9.78463 16.7059 8.97729 17.0659 8.88222 16.3821C8.93406 16.4346 8.88222 13.2939 8.88222 13.2939C8.88222 13.2939 9.10281 12.3747 9.32339 12.4116ZM4.47053 17.2644C4.44847 16.7655 4.47053 14.1762 4.47053 14.1762C4.47053 14.1762 5.11706 13.278 5.57345 14.1762C5.61624 15.0745 5.57345 17.2644 5.57345 17.2644C5.57345 17.2644 5.15985 18.8912 4.47053 17.2644ZM3.14702 14.1762C3.14702 14.1762 3.72054 13.6826 3.80877 15.2792C3.87314 16.1676 3.79872 17.0607 3.58819 17.9262C3.58819 17.9262 2.98467 18.4251 2.70585 17.9262C2.64739 17.4641 2.48526 13.9188 3.14702 14.1762ZM20.5732 21.4555C20.5732 21.4555 26.3305 21.0722 26.529 21.0144C26.7275 20.9566 27.1908 21.235 27.1908 21.235L27.6319 21.8967V22.3379C27.6319 22.3379 28.1768 23.5654 26.0878 23.882C25.138 23.3647 24.7436 23.7198 24.7643 22.3379C24.7332 22.2335 24.6765 22.1385 24.5995 22.0615C24.5225 21.9845 24.4275 21.9279 24.3232 21.8967H23.4408C23.4408 21.8967 23.4629 24.0143 21.4556 23.882C20.5311 23.6614 20.485 22.5805 20.5732 22.3379C20.6195 22.0456 20.6195 21.7478 20.5732 21.4555ZM1.38234 15.0586C1.38234 15.0586 1.5394 14.2989 1.82351 15.0586C2.10762 15.8183 1.82351 18.1468 1.82351 18.1468C1.82351 18.1468 1.31881 18.7472 1.16175 17.9262C1.33558 17.5095 1.38234 15.0586 1.38234 15.0586ZM14.1763 11.0881L14.3968 15.2792C14.3968 15.2792 13.7935 16.6971 12.6322 15.7203C12.6101 15.1111 12.6322 11.5292 12.6322 11.5292C12.6322 11.5292 13.1836 10.2792 14.1763 11.0881ZM14.1763 11.0881L14.3968 15.2792C14.3968 15.2792 13.7935 16.6971 12.6322 15.7203C12.6101 15.1111 12.6322 11.5292 12.6322 11.5292C12.6322 11.5292 13.1836 10.2792 14.1763 11.0881ZM14.1763 11.0881L14.3968 15.2792C14.3968 15.2792 13.7935 16.6971 12.6322 15.7203C12.6101 15.1111 12.6322 11.5292 12.6322 11.5292C12.6322 11.5292 13.1836 10.2792 14.1763 11.0881Z" fill="#E6E6BF"/>
</g>
</g>
</svg>
